<svg width="35" height="35" viewBox="0 0 35 35" fill="none" xmlns="http://www.w3.org/2000/svg">
<path d="M28.8793 4.2051C26.3092 2.00517 23.2857 0.680616 20.1709 0.202854C14.3873 -0.684435 8.29005 1.34821 4.2053 6.12064C-2.07937 13.4633 -1.22183 24.5102 6.12083 30.795C8.69096 32.9948 11.7143 34.3192 14.8291 34.7971C20.6127 35.6845 26.7101 33.6516 30.7947 28.8791C37.0794 21.5365 36.2217 10.4897 28.8793 4.2051V4.2051ZM32.2711 22.5766L26.9227 20.7328C27.6431 18.6311 27.6343 16.3522 26.9244 14.2725L32.2671 12.4338C32.6894 13.6678 32.9591 14.9635 33.0628 16.299C33.2306 18.4604 32.9547 20.587 32.2711 22.5766ZM32.5714 12.2843C32.5714 12.284 32.5714 12.2837 32.5714 12.2834C32.5714 12.2837 32.5714 12.284 32.5714 12.2843ZM29.2695 7.2569L25.0114 10.9557C24.6963 10.5951 24.3528 10.252 23.9782 9.9314C22.6245 8.77282 21.0493 8.04313 19.417 7.72474L20.4907 2.20681C23.1268 2.71798 25.5918 3.89427 27.6489 5.65503C28.232 6.15416 28.7728 6.68989 29.2695 7.2569V7.2569ZM12.1891 2.83119C12.948 2.5579 13.7263 2.34611 14.5159 2.19512L15.5887 7.7251C13.4886 8.13439 11.5059 9.21859 9.99379 10.9528L5.73149 7.24604C7.47678 5.24338 9.70468 3.72663 12.1891 2.83119V2.83119ZM2.72987 12.4234L8.07732 14.267C7.35696 16.3687 7.3657 18.6474 8.07555 20.7273L2.72834 22.5675C2.30783 21.3349 2.03927 20.0411 1.93585 18.7086C1.76798 16.5452 2.04469 14.4154 2.72987 12.4234V12.4234ZM5.72169 27.7503L9.98872 24.044C10.3038 24.4048 10.6475 24.748 11.0222 25.0687C12.3757 26.2273 13.9508 26.9567 15.583 27.2752L14.5037 32.8234C11.8681 32.3101 9.40553 31.1208 7.34917 29.3605C6.76304 28.859 6.22011 28.3207 5.72169 27.7503ZM22.8082 32.1854C22.0516 32.458 21.2752 32.6706 20.4875 32.8233L19.4112 27.2747C21.5113 26.8655 23.4941 25.7813 25.0062 24.0469L29.2704 27.7549C27.5245 29.7597 25.2937 31.2896 22.8082 32.1854V32.1854Z" fill="#729C62"/>
<path d="M11.0228 7.25996C11.5444 7.25996 11.9673 6.83713 11.9673 6.31554C11.9673 5.79394 11.5444 5.37111 11.0228 5.37111C10.5012 5.37111 10.0784 5.79394 10.0784 6.31554C10.0784 6.83713 10.5012 7.25996 11.0228 7.25996Z" fill="#729C62"/>
<path d="M4.57548 18.4613C5.09707 18.4613 5.51991 18.0385 5.51991 17.5169C5.51991 16.9953 5.09707 16.5725 4.57548 16.5725C4.05389 16.5725 3.63106 16.9953 3.63106 17.5169C3.63106 18.0385 4.05389 18.4613 4.57548 18.4613Z" fill="#729C62"/>
<path d="M11.0525 29.6458C11.5741 29.6458 11.997 29.223 11.997 28.7014C11.997 28.1798 11.5741 27.757 11.0525 27.757C10.5309 27.757 10.1081 28.1798 10.1081 28.7014C10.1081 29.223 10.5309 29.6458 11.0525 29.6458Z" fill="#729C62"/>
<path d="M23.9772 29.6287C24.4988 29.6287 24.9217 29.2058 24.9217 28.6842C24.9217 28.1625 24.4988 27.7396 23.9772 27.7396C23.4555 27.7396 23.0326 28.1625 23.0326 28.6842C23.0326 29.2058 23.4555 29.6287 23.9772 29.6287Z" fill="#729C62"/>
<path d="M30.4243 18.427C30.9459 18.427 31.3687 18.0042 31.3687 17.4826C31.3687 16.961 30.9459 16.5381 30.4243 16.5381C29.9027 16.5381 29.4799 16.961 29.4799 17.4826C29.4799 18.0042 29.9027 18.427 30.4243 18.427Z" fill="#729C62"/>
<path d="M23.9473 7.24261C24.4689 7.24261 24.8918 6.81978 24.8918 6.29818C24.8918 5.77659 24.4689 5.35376 23.9473 5.35376C23.4258 5.35376 23.0029 5.77659 23.0029 6.29818C23.0029 6.81978 23.4258 7.24261 23.9473 7.24261Z" fill="#729C62"/>
</svg>
