<svg width="210" height="44" viewBox="0 0 210 44" fill="none" xmlns="http://www.w3.org/2000/svg">
<mask id="path-1-inside-1_7_14" fill="white">
<path d="M0 0H210V44H10C4.47715 44 0 39.5228 0 34V0Z"/>
</mask>
<path d="M0 0H210H0ZM210 45H10C3.92487 45 -1 40.0751 -1 34H1C1 38.9706 5.02944 43 10 43H210V45ZM10 45C3.92487 45 -1 40.0751 -1 34V0H1V34C1 38.9706 5.02944 43 10 43V45ZM210 0V44V0Z" fill="white" mask="url(#path-1-inside-1_7_14)"/>
<path d="M87.2386 10.9091V40H83.7159V14.6023H83.5455L76.4432 19.3182V15.7386L83.7159 10.9091H87.2386ZM105.094 40.3977C102.954 40.3977 101.131 39.8153 99.625 38.6506C98.1193 37.4763 96.9688 35.7765 96.1733 33.5511C95.3778 31.3163 94.9801 28.6174 94.9801 25.4545C94.9801 22.3106 95.3778 19.6259 96.1733 17.4006C96.9782 15.1657 98.1335 13.4612 99.6392 12.2869C101.154 11.1032 102.973 10.5114 105.094 10.5114C107.215 10.5114 109.028 11.1032 110.534 12.2869C112.049 13.4612 113.205 15.1657 114 17.4006C114.805 19.6259 115.207 22.3106 115.207 25.4545C115.207 28.6174 114.81 31.3163 114.014 33.5511C113.219 35.7765 112.068 37.4763 110.562 38.6506C109.057 39.8153 107.234 40.3977 105.094 40.3977ZM105.094 37.2727C107.215 37.2727 108.863 36.25 110.037 34.2045C111.211 32.1591 111.798 29.2424 111.798 25.4545C111.798 22.9356 111.528 20.7907 110.989 19.0199C110.458 17.2491 109.691 15.8996 108.688 14.9716C107.693 14.0436 106.495 13.5795 105.094 13.5795C102.991 13.5795 101.348 14.6165 100.165 16.6903C98.9811 18.7547 98.3892 21.6761 98.3892 25.4545C98.3892 27.9735 98.6544 30.1136 99.1847 31.875C99.715 33.6364 100.477 34.9763 101.472 35.8949C102.475 36.8134 103.683 37.2727 105.094 37.2727ZM130.094 40.3977C127.954 40.3977 126.131 39.8153 124.625 38.6506C123.119 37.4763 121.969 35.7765 121.173 33.5511C120.378 31.3163 119.98 28.6174 119.98 25.4545C119.98 22.3106 120.378 19.6259 121.173 17.4006C121.978 15.1657 123.134 13.4612 124.639 12.2869C126.154 11.1032 127.973 10.5114 130.094 10.5114C132.215 10.5114 134.028 11.1032 135.534 12.2869C137.049 13.4612 138.205 15.1657 139 17.4006C139.805 19.6259 140.207 22.3106 140.207 25.4545C140.207 28.6174 139.81 31.3163 139.014 33.5511C138.219 35.7765 137.068 37.4763 135.562 38.6506C134.057 39.8153 132.234 40.3977 130.094 40.3977ZM130.094 37.2727C132.215 37.2727 133.863 36.25 135.037 34.2045C136.211 32.1591 136.798 29.2424 136.798 25.4545C136.798 22.9356 136.528 20.7907 135.989 19.0199C135.458 17.2491 134.691 15.8996 133.688 14.9716C132.693 14.0436 131.495 13.5795 130.094 13.5795C127.991 13.5795 126.348 14.6165 125.165 16.6903C123.981 18.7547 123.389 21.6761 123.389 25.4545C123.389 27.9735 123.654 30.1136 124.185 31.875C124.715 33.6364 125.477 34.9763 126.472 35.8949C127.475 36.8134 128.683 37.2727 130.094 37.2727Z" fill="#729C62"/>
<path d="M48.8793 9.2051C46.3092 7.00517 43.2857 5.68062 40.1709 5.20285C34.3873 4.31556 28.2901 6.34821 24.2053 11.1206C17.9206 18.4633 18.7782 29.5102 26.1208 35.795C28.691 37.9948 31.7143 39.3192 34.8291 39.7971C40.6127 40.6845 46.7101 38.6516 50.7947 33.8791C57.0794 26.5365 56.2217 15.4897 48.8793 9.2051ZM52.2711 27.5766L46.9227 25.7328C47.6431 23.6311 47.6343 21.3522 46.9244 19.2725L52.2671 17.4338C52.6894 18.6678 52.9591 19.9635 53.0628 21.299C53.2306 23.4604 52.9547 25.587 52.2711 27.5766ZM52.5714 17.2843C52.5714 17.284 52.5714 17.2837 52.5714 17.2834C52.5714 17.2837 52.5714 17.284 52.5714 17.2843ZM49.2695 12.2569L45.0114 15.9557C44.6963 15.5951 44.3528 15.252 43.9782 14.9314C42.6245 13.7728 41.0493 13.0431 39.417 12.7247L40.4907 7.20681C43.1268 7.71798 45.5918 8.89427 47.6489 10.655C48.232 11.1542 48.7728 11.6899 49.2695 12.2569ZM32.1891 7.83119C32.948 7.5579 33.7263 7.34611 34.5159 7.19512L35.5887 12.7251C33.4886 13.1344 31.5059 14.2186 29.9938 15.9528L25.7315 12.246C27.4768 10.2434 29.7047 8.72663 32.1891 7.83119ZM22.7299 17.4234L28.0773 19.267C27.357 21.3687 27.3657 23.6474 28.0756 25.7273L22.7283 27.5675C22.3078 26.3349 22.0393 25.0411 21.9359 23.7086C21.768 21.5452 22.0447 19.4154 22.7299 17.4234ZM25.7217 32.7503L29.9887 29.044C30.3038 29.4048 30.6475 29.748 31.0222 30.0687C32.3757 31.2273 33.9508 31.9567 35.583 32.2752L34.5037 37.8234C31.8681 37.3101 29.4055 36.1208 27.3492 34.3605C26.763 33.859 26.2201 33.3207 25.7217 32.7503ZM42.8082 37.1854C42.0516 37.458 41.2752 37.6706 40.4875 37.8233L39.4112 32.2747C41.5113 31.8655 43.4941 30.7813 45.0062 29.0469L49.2704 32.7549C47.5245 34.7597 45.2937 36.2896 42.8082 37.1854Z" fill="#729C62"/>
<path d="M31.0228 12.26C31.5444 12.26 31.9673 11.8371 31.9673 11.3155C31.9673 10.7939 31.5444 10.3711 31.0228 10.3711C30.5012 10.3711 30.0784 10.7939 30.0784 11.3155C30.0784 11.8371 30.5012 12.26 31.0228 12.26Z" fill="#729C62"/>
<path d="M24.5755 23.4613C25.0971 23.4613 25.5199 23.0385 25.5199 22.5169C25.5199 21.9953 25.0971 21.5725 24.5755 21.5725C24.0539 21.5725 23.6311 21.9953 23.6311 22.5169C23.6311 23.0385 24.0539 23.4613 24.5755 23.4613Z" fill="#729C62"/>
<path d="M31.0525 34.6458C31.5741 34.6458 31.997 34.223 31.997 33.7014C31.997 33.1798 31.5741 32.757 31.0525 32.757C30.5309 32.757 30.1081 33.1798 30.1081 33.7014C30.1081 34.223 30.5309 34.6458 31.0525 34.6458Z" fill="#729C62"/>
<path d="M43.9772 34.6287C44.4988 34.6287 44.9217 34.2058 44.9217 33.6842C44.9217 33.1625 44.4988 32.7396 43.9772 32.7396C43.4555 32.7396 43.0326 33.1625 43.0326 33.6842C43.0326 34.2058 43.4555 34.6287 43.9772 34.6287Z" fill="#729C62"/>
<path d="M50.4243 23.427C50.9459 23.427 51.3687 23.0042 51.3687 22.4826C51.3687 21.961 50.9459 21.5381 50.4243 21.5381C49.9027 21.5381 49.4799 21.961 49.4799 22.4826C49.4799 23.0042 49.9027 23.427 50.4243 23.427Z" fill="#729C62"/>
<path d="M43.9473 12.2426C44.4689 12.2426 44.8918 11.8198 44.8918 11.2982C44.8918 10.7766 44.4689 10.3538 43.9473 10.3538C43.4258 10.3538 43.0029 10.7766 43.0029 11.2982C43.0029 11.8198 43.4258 12.2426 43.9473 12.2426Z" fill="#729C62"/>
</svg>
