<svg width="27" height="35" viewBox="0 0 27 35" fill="none" xmlns="http://www.w3.org/2000/svg">
<mask id="path-1-inside-1_97_2415" fill="white">
<path d="M0 3.0708H15.3539V27.6371H0V3.0708Z"/>
</mask>
<path d="M0 3.0708H15.3539V27.6371H0V3.0708Z" fill="#5D81FF"/>
<path d="M14.5013 3.0708V27.6371H16.2066V3.0708H14.5013ZM0.852632 27.6371V3.0708H-0.852632V27.6371H0.852632Z" fill="black" mask="url(#path-1-inside-1_97_2415)"/>
<path d="M14.9276 3.07079C14.9276 3.33978 14.7931 3.63918 14.4577 3.95634C14.1215 4.27435 13.612 4.58038 12.9471 4.84634C11.6196 5.37732 9.75656 5.71526 7.67697 5.71526C5.59739 5.71526 3.73431 5.37732 2.40686 4.84634C1.74196 4.58038 1.23249 4.27435 0.89622 3.95634C0.56085 3.63918 0.426316 3.33978 0.426316 3.07079C0.426316 2.8018 0.56085 2.5024 0.89622 2.18524C1.23249 1.86723 1.74196 1.5612 2.40686 1.29524C3.73431 0.76426 5.59739 0.426316 7.67697 0.426316C9.75656 0.426316 11.6196 0.76426 12.9471 1.29524C13.612 1.5612 14.1215 1.86723 14.4577 2.18524C14.7931 2.5024 14.9276 2.8018 14.9276 3.07079Z" fill="#5D81FF" stroke="black" stroke-width="0.852632"/>
<path d="M14.4327 7.98407C14.4327 8.07313 14.3914 8.25117 14.1177 8.51003C13.842 8.77073 13.3937 9.04794 12.7633 9.3001C11.5076 9.80237 9.70971 10.1336 7.67697 10.1336C5.64423 10.1336 3.84635 9.80237 2.59067 9.3001C1.96028 9.04794 1.51195 8.77073 1.23628 8.51003C0.962566 8.25117 0.921237 8.07313 0.921237 7.98407H0C0 9.68002 3.4371 11.0549 7.67697 11.0549C11.9168 11.0549 15.3539 9.68002 15.3539 7.98407H14.4327Z" fill="black"/>
<path d="M14.4327 17.8105C14.4327 17.8996 14.3914 18.0777 14.1177 18.3365C13.842 18.5972 13.3937 18.8744 12.7633 19.1266C11.5076 19.6288 9.70971 19.9601 7.67697 19.9601C5.64423 19.9601 3.84635 19.6288 2.59067 19.1266C1.96028 18.8744 1.51195 18.5972 1.23628 18.3365C0.962566 18.0777 0.921237 17.8996 0.921237 17.8105H0C0 19.5065 3.4371 20.8813 7.67697 20.8813C11.9168 20.8813 15.3539 19.5065 15.3539 17.8105H14.4327Z" fill="black"/>
<path d="M14.4327 12.8973C14.4327 12.9864 14.3914 13.1644 14.1177 13.4233C13.842 13.684 13.3937 13.9612 12.7633 14.2134C11.5076 14.7156 9.70971 15.0469 7.67697 15.0469C5.64423 15.0469 3.84635 14.7156 2.59067 14.2134C1.96028 13.9612 1.51195 13.684 1.23628 13.4233C0.962566 13.1644 0.921237 12.9864 0.921237 12.8973H0C0 14.5933 3.4371 15.9681 7.67697 15.9681C11.9168 15.9681 15.3539 14.5933 15.3539 12.8973H14.4327Z" fill="black"/>
<path d="M14.4327 27.6371C14.4327 27.7261 14.3914 27.9042 14.1177 28.163C13.842 28.4237 13.3937 28.701 12.7633 28.9531C11.5076 29.4554 9.70971 29.7866 7.67697 29.7866C5.64423 29.7866 3.84635 29.4554 2.59067 28.9531C1.96028 28.701 1.51195 28.4237 1.23628 28.163C0.962566 27.9042 0.921237 27.7261 0.921237 27.6371H0C0 29.333 3.4371 30.7079 7.67697 30.7079C11.9168 30.7079 15.3539 29.333 15.3539 27.6371H14.4327Z" fill="black"/>
<path d="M14.4327 27.6371C14.4327 27.7261 14.3914 27.9042 14.1177 28.163C13.842 28.4237 13.3937 28.701 12.7633 28.9531C11.5076 29.4554 9.70974 29.7866 7.677 29.7866C5.64426 29.7866 3.84638 29.4554 2.5907 28.9531C1.9603 28.701 1.51197 28.4237 1.23631 28.163C0.962594 27.9042 0.921265 27.7261 0.921265 27.6371H14.4327Z" fill="#5D81FF"/>
<path d="M2.37783 29.859C2.28986 29.8254 2.20388 29.791 2.11997 29.7558C2.16228 29.7735 2.20514 29.7911 2.24854 29.8085C2.29117 29.8255 2.33427 29.8423 2.37783 29.859Z" fill="#5D81FF"/>
<path d="M14.4327 22.7238C14.4327 22.8129 14.3914 22.9909 14.1177 23.2498C13.842 23.5105 13.3937 23.7877 12.7633 24.0398C11.5076 24.5421 9.70971 24.8734 7.67697 24.8734C5.64423 24.8734 3.84635 24.5421 2.59067 24.0398C1.96028 23.7877 1.51195 23.5105 1.23628 23.2498C0.962566 22.9909 0.921237 22.8129 0.921237 22.7238H0C0 24.4198 3.4371 25.7946 7.67697 25.7946C11.9168 25.7946 15.3539 24.4198 15.3539 22.7238H14.4327Z" fill="black"/>
<mask id="path-10-inside-2_97_2415" fill="white">
<path d="M11.3597 7.67542H26.7106V27.3246H11.3597V7.67542Z"/>
</mask>
<path d="M11.3597 7.67542H26.7106V27.3246H11.3597V7.67542Z" fill="#FCFF5D"/>
<path d="M25.7895 7.67542V27.3246H27.6316V7.67542H25.7895ZM12.2807 27.3246V7.67542H10.4386V27.3246H12.2807Z" fill="black" mask="url(#path-10-inside-2_97_2415)"/>
<path d="M26.25 7.6754C26.25 7.93187 26.1219 8.2228 25.7909 8.53586C25.4589 8.84984 24.9538 9.15381 24.2914 9.41876C22.9692 9.94764 21.111 10.2851 19.0351 10.2851C16.9591 10.2851 15.1009 9.94764 13.7787 9.41876C13.1164 9.15381 12.6112 8.84984 12.2792 8.53586C11.9482 8.2228 11.8201 7.93187 11.8201 7.6754C11.8201 7.41893 11.9482 7.12801 12.2792 6.81495C12.6112 6.50097 13.1164 6.197 13.7787 5.93205C15.1009 5.40316 16.9591 5.06575 19.0351 5.06575C21.111 5.06575 22.9692 5.40316 24.2914 5.93205C24.9538 6.197 25.4589 6.50097 25.7909 6.81495C26.1219 7.12801 26.25 7.41893 26.25 7.6754Z" fill="#FCFF5D" stroke="black" stroke-width="0.921054"/>
<path d="M25.7895 12.5877C25.7895 12.6767 25.7482 12.8548 25.4745 13.1136C25.1989 13.3742 24.7507 13.6514 24.1204 13.9035C22.865 14.4056 21.0675 14.7368 19.0351 14.7368C17.0028 14.7368 15.2053 14.4056 13.9498 13.9035C13.3196 13.6514 12.8713 13.3742 12.5957 13.1136C12.3221 12.8548 12.2807 12.6767 12.2807 12.5877H11.3597C11.3597 14.2833 14.7961 15.6579 19.0351 15.6579C23.2742 15.6579 26.7106 14.2833 26.7106 12.5877H25.7895Z" fill="black"/>
<path d="M25.7895 22.4123C25.7895 22.5013 25.7482 22.6793 25.4745 22.9381C25.1989 23.1988 24.7507 23.476 24.1204 23.7281C22.865 24.2302 21.0675 24.5614 19.0351 24.5614C17.0028 24.5614 15.2053 24.2302 13.9498 23.7281C13.3196 23.476 12.8713 23.1988 12.5957 22.9381C12.3221 22.6793 12.2807 22.5013 12.2807 22.4123H11.3597C11.3597 24.1079 14.7961 25.4825 19.0351 25.4825C23.2742 25.4825 26.7106 24.1079 26.7106 22.4123H25.7895Z" fill="black"/>
<path d="M25.7895 17.5C25.7895 17.589 25.7482 17.7671 25.4745 18.0259C25.1989 18.2865 24.7507 18.5637 24.1204 18.8158C22.865 19.3179 21.0675 19.6491 19.0351 19.6491C17.0028 19.6491 15.2053 19.3179 13.9498 18.8158C13.3196 18.5637 12.8713 18.2865 12.5957 18.0259C12.3221 17.7671 12.2807 17.589 12.2807 17.5H11.3597C11.3597 19.1956 14.7961 20.5702 19.0351 20.5702C23.2742 20.5702 26.7106 19.1956 26.7106 17.5H25.7895Z" fill="black"/>
<path d="M25.7895 27.3246C25.7895 27.4136 25.7482 27.5916 25.4745 27.8504C25.1989 28.1111 24.7507 28.3882 24.1204 28.6404C22.865 29.1425 21.0675 29.4737 19.0351 29.4737C17.0028 29.4737 15.2053 29.1425 13.9498 28.6404C13.3196 28.3882 12.8713 28.1111 12.5957 27.8504C12.3221 27.5916 12.2807 27.4136 12.2807 27.3246H11.3597C11.3597 29.0202 14.7961 30.3948 19.0351 30.3948C23.2742 30.3948 26.7106 29.0202 26.7106 27.3246H25.7895Z" fill="black"/>
<path d="M25.7895 27.3246C25.7895 27.4136 25.7482 27.5916 25.4745 27.8504C25.1989 28.1111 24.7507 28.3882 24.1204 28.6404C22.865 29.1425 21.0674 29.4737 19.0351 29.4737C17.0028 29.4737 15.2052 29.1425 13.9498 28.6404C13.3195 28.3882 12.8713 28.1111 12.5957 27.8504C12.322 27.5916 12.2807 27.4136 12.2807 27.3246H25.7895Z" fill="#FCFF5D"/>
<path d="M13.737 29.546C13.649 29.5125 13.5631 29.4781 13.4792 29.4429C13.5215 29.4606 13.5643 29.4782 13.6077 29.4955C13.6503 29.5126 13.6934 29.5294 13.737 29.546Z" fill="#FCFF5D"/>
<path d="M3.6842 17.193H19.0351V31.9298H3.6842V17.193Z" fill="#FF5D5D"/>
<path fill-rule="evenodd" clip-rule="evenodd" d="M18.114 31.9298V17.193H19.0351V31.9298H18.114ZM4.60526 31.9298V17.193H3.6842V31.9298H4.60526Z" fill="black"/>
<path d="M19.0351 17.193C19.0351 18.8886 15.5987 20.2632 11.3597 20.2632C7.12062 20.2632 3.6842 18.8886 3.6842 17.193C3.6842 15.4974 7.12062 14.1228 11.3597 14.1228C15.5987 14.1228 19.0351 15.4974 19.0351 17.193Z" fill="#FF5D5D"/>
<path d="M18.114 22.1053C18.114 22.1943 18.0727 22.3723 17.7991 22.6311C17.5235 22.8918 17.0752 23.1689 16.4449 23.421C15.1895 23.9232 13.392 24.2544 11.3597 24.2544C9.32731 24.2544 7.52979 23.9232 6.27436 23.421C5.64409 23.1689 5.19585 22.8918 4.92024 22.6311C4.64658 22.3723 4.60526 22.1943 4.60526 22.1053H3.6842C3.6842 23.8009 7.12062 25.1754 11.3597 25.1754C15.5987 25.1754 19.0351 23.8009 19.0351 22.1053H18.114Z" fill="black"/>
<path d="M18.114 27.0176C18.114 27.1066 18.0727 27.2846 17.7991 27.5434C17.5235 27.8041 17.0752 28.0812 16.4449 28.3333C15.1895 28.8355 13.392 29.1667 11.3597 29.1667C9.32731 29.1667 7.52979 28.8355 6.27436 28.3333C5.64409 28.0812 5.19585 27.8041 4.92024 27.5434C4.64658 27.2846 4.60526 27.1066 4.60526 27.0176H3.6842C3.6842 28.7132 7.12062 30.0877 11.3597 30.0877C15.5987 30.0877 19.0351 28.7132 19.0351 27.0176H18.114Z" fill="black"/>
<path d="M18.114 31.9298C18.114 32.0189 18.0727 32.1969 17.7991 32.4557C17.5235 32.7163 17.0752 32.9935 16.4449 33.2456C15.1895 33.7478 13.392 34.079 11.3597 34.079C9.32731 34.079 7.52979 33.7478 6.27436 33.2456C5.64409 32.9935 5.19585 32.7163 4.92024 32.4557C4.64658 32.1969 4.60526 32.0189 4.60526 31.9298H3.6842C3.6842 33.6255 7.12062 35 11.3597 35C15.5987 35 19.0351 33.6255 19.0351 31.9298H18.114Z" fill="black"/>
<path d="M18.114 31.9298C18.114 32.0189 18.0727 32.1969 17.7991 32.4557C17.5235 32.7163 17.0752 32.9935 16.4449 33.2456C15.1895 33.7478 13.392 34.079 11.3597 34.079C9.32731 34.079 7.52979 33.7478 6.27436 33.2456C5.64409 32.9935 5.19585 32.7163 4.92024 32.4557C4.64658 32.1969 4.60526 32.0189 4.60526 31.9298H18.114Z" fill="#FF5D5D"/>
<path d="M6.06154 34.1513C5.97358 34.1177 5.88762 34.0833 5.80373 34.0481C5.84602 34.0659 5.88887 34.0834 5.93227 34.1008C5.97489 34.1178 6.01798 34.1347 6.06154 34.1513Z" fill="#FF5D5D"/>
<path d="M18.5746 17.193C18.5746 17.4495 18.4465 17.7404 18.1155 18.0534C17.7835 18.3674 17.2784 18.6714 16.616 18.9363C15.2938 19.4652 13.4356 19.8026 11.3597 19.8026C9.28373 19.8026 7.42553 19.4652 6.10333 18.9363C5.44095 18.6714 4.93581 18.3674 4.60381 18.0534C4.27278 17.7404 4.14473 17.4495 4.14473 17.193C4.14473 16.9365 4.27278 16.6456 4.60381 16.3325C4.93581 16.0185 5.44095 15.7146 6.10333 15.4496C7.42553 14.9207 9.28373 14.5833 11.3597 14.5833C13.4356 14.5833 15.2938 14.9207 16.616 15.4496C17.2784 15.7146 17.7835 16.0185 18.1155 16.3325C18.4465 16.6456 18.5746 16.9365 18.5746 17.193Z" fill="#FF5D5D" stroke="black" stroke-width="0.921054"/>
</svg>
