<svg width="272" height="80" viewBox="0 0 272 80" fill="none" xmlns="http://www.w3.org/2000/svg">
<path d="M0.5 0.5H270.791L191.646 79.5H0.5V0.5Z" fill="#76CD7F" stroke="black"/>
<path d="M75.1381 47.8182V26H77.785V35.7159H89.44V26H92.0869V47.8182H89.44V38.0597H77.785V47.8182H75.1381Z" fill="black"/>
<path d="M103.918 48.1591C102.338 48.1591 100.976 47.8111 99.8302 47.1151C98.6917 46.4119 97.813 45.4318 97.1939 44.1747C96.582 42.9105 96.2761 41.4403 96.2761 39.7642C96.2761 38.0881 96.582 36.6108 97.1939 35.3324C97.813 34.0469 98.6739 33.0455 99.7768 32.3281C100.887 31.6037 102.182 31.2415 103.662 31.2415C104.516 31.2415 105.359 31.3835 106.191 31.6676C107.024 31.9517 107.782 32.4134 108.465 33.0526C109.148 33.6847 109.692 34.5227 110.098 35.5668C110.503 36.6108 110.706 37.8963 110.706 39.4233V40.4886H98.0691V38.3153H108.144C108.144 37.392 107.959 36.5682 107.589 35.8438C107.227 35.1193 106.707 34.5476 106.031 34.1286C105.362 33.7095 104.573 33.5 103.662 33.5C102.659 33.5 101.79 33.7486 101.058 34.2457C100.332 34.7358 99.7733 35.375 99.3819 36.1634C98.9906 36.9517 98.7949 37.7969 98.7949 38.6989V40.1477C98.7949 41.3835 99.0084 42.4311 99.4353 43.2905C99.8693 44.1428 100.471 44.7926 101.239 45.2401C102.007 45.6804 102.9 45.9006 103.918 45.9006C104.58 45.9006 105.177 45.8082 105.711 45.6236C106.252 45.4318 106.718 45.1477 107.109 44.7713C107.501 44.3878 107.803 43.9119 108.016 43.3438L110.45 44.0256C110.194 44.8494 109.763 45.5739 109.158 46.1989C108.554 46.8168 107.806 47.2997 106.917 47.6477C106.028 47.9886 105.028 48.1591 103.918 48.1591Z" fill="black"/>
<path d="M117.056 26V47.8182H114.538V26H117.056Z" fill="black"/>
<path d="M121.67 53.9545V31.4545H124.103V34.054H124.402C124.587 33.7699 124.843 33.4077 125.171 32.9673C125.505 32.5199 125.982 32.1222 126.601 31.7741C127.227 31.419 128.074 31.2415 129.141 31.2415C130.521 31.2415 131.738 31.5859 132.791 32.2749C133.844 32.9638 134.666 33.9403 135.257 35.2045C135.847 36.4688 136.142 37.9602 136.142 39.679C136.142 41.4119 135.847 42.9141 135.257 44.1854C134.666 45.4496 133.848 46.4297 132.802 47.1257C131.756 47.8146 130.55 48.1591 129.184 48.1591C128.131 48.1591 127.287 47.9851 126.654 47.6371C126.021 47.282 125.533 46.8807 125.192 46.4332C124.85 45.9787 124.587 45.6023 124.402 45.304H124.189V53.9545H121.67ZM124.146 39.6364C124.146 40.8722 124.327 41.9624 124.69 42.907C125.053 43.8445 125.583 44.5795 126.281 45.1122C126.978 45.6378 127.832 45.9006 128.842 45.9006C129.895 45.9006 130.774 45.6236 131.478 45.0696C132.19 44.5085 132.724 43.7557 133.079 42.8111C133.442 41.8594 133.624 40.8011 133.624 39.6364C133.624 38.4858 133.446 37.4489 133.09 36.5256C132.741 35.5952 132.211 34.8601 131.5 34.3203C130.795 33.7734 129.909 33.5 128.842 33.5C127.818 33.5 126.957 33.7592 126.259 34.2777C125.562 34.7891 125.035 35.5064 124.68 36.4297C124.324 37.3459 124.146 38.4148 124.146 39.6364Z" fill="black"/>
</svg>
