<svg width="272" height="80" viewBox="0 0 272 80" fill="none" xmlns="http://www.w3.org/2000/svg">
<path d="M1.21026 79.5L80.5018 0.5H271.5V79.5H1.21026Z" fill="#76CD7F" stroke="black"/>
<path d="M120 52.0909V23H129.83C132.112 23 133.977 23.4119 135.426 24.2358C136.884 25.0502 137.964 26.1534 138.665 27.5455C139.366 28.9375 139.716 30.4905 139.716 32.2045C139.716 33.9186 139.366 35.4763 138.665 36.8778C137.973 38.2794 136.903 39.3968 135.455 40.2301C134.006 41.054 132.15 41.4659 129.886 41.4659H122.841V38.3409H129.773C131.335 38.3409 132.59 38.071 133.537 37.5312C134.484 36.9915 135.17 36.2623 135.597 35.3438C136.032 34.4157 136.25 33.3693 136.25 32.2045C136.25 31.0398 136.032 29.9981 135.597 29.0795C135.17 28.161 134.479 27.4413 133.523 26.9205C132.566 26.3902 131.297 26.125 129.716 26.125H123.523V52.0909H120Z" fill="black"/>
<path d="M148.288 23V52.0909H144.936V23H148.288Z" fill="black"/>
<path d="M160.849 52.6023C159.466 52.6023 158.211 52.3419 157.085 51.821C155.958 51.2907 155.063 50.5284 154.4 49.5341C153.737 48.5303 153.406 47.3182 153.406 45.8977C153.406 44.6477 153.652 43.6345 154.144 42.858C154.637 42.072 155.295 41.4564 156.119 41.0114C156.942 40.5663 157.852 40.2348 158.846 40.017C159.85 39.7898 160.858 39.6098 161.871 39.4773C163.197 39.3068 164.272 39.179 165.096 39.0938C165.929 38.9991 166.535 38.8428 166.914 38.625C167.302 38.4072 167.496 38.0284 167.496 37.4886V37.375C167.496 35.9735 167.113 34.8845 166.346 34.108C165.588 33.3314 164.438 32.9432 162.894 32.9432C161.294 32.9432 160.039 33.2936 159.13 33.9943C158.221 34.6951 157.582 35.4432 157.212 36.2386L154.031 35.1023C154.599 33.7765 155.356 32.7443 156.303 32.0057C157.26 31.2576 158.301 30.7367 159.428 30.4432C160.565 30.1402 161.682 29.9886 162.781 29.9886C163.481 29.9886 164.286 30.0739 165.195 30.2443C166.114 30.4053 166.999 30.7415 167.852 31.2528C168.713 31.7642 169.428 32.536 169.996 33.5682C170.565 34.6004 170.849 35.983 170.849 37.7159V52.0909H167.496V49.1364H167.326C167.099 49.6098 166.72 50.1165 166.19 50.6563C165.659 51.196 164.954 51.6553 164.073 52.0341C163.192 52.4129 162.118 52.6023 160.849 52.6023ZM161.36 49.5909C162.686 49.5909 163.803 49.3305 164.712 48.8097C165.631 48.2888 166.322 47.6165 166.786 46.7926C167.26 45.9688 167.496 45.1023 167.496 44.1932V41.125C167.354 41.2955 167.042 41.4517 166.559 41.5938C166.085 41.7263 165.536 41.8447 164.911 41.9489C164.296 42.0436 163.694 42.1288 163.107 42.2045C162.53 42.2708 162.061 42.3277 161.701 42.375C160.83 42.4886 160.015 42.6733 159.258 42.929C158.51 43.1752 157.904 43.5492 157.44 44.0511C156.985 44.5436 156.758 45.2159 156.758 46.0682C156.758 47.233 157.189 48.1136 158.05 48.7102C158.922 49.2974 160.025 49.5909 161.36 49.5909Z" fill="black"/>
<path d="M178.345 60.2727C177.777 60.2727 177.27 60.2254 176.825 60.1307C176.38 60.0455 176.072 59.9602 175.902 59.875L176.754 56.9205C177.569 57.1288 178.288 57.2045 178.913 57.1477C179.538 57.0909 180.092 56.8116 180.575 56.3097C181.068 55.8172 181.518 55.017 181.925 53.9091L182.55 52.2045L174.482 30.2727H178.118L184.141 47.6591H184.368L190.391 30.2727H194.027L184.766 55.2727C184.349 56.3996 183.833 57.3324 183.217 58.071C182.602 58.8191 181.887 59.3731 181.072 59.733C180.268 60.0928 179.358 60.2727 178.345 60.2727Z" fill="black"/>
</svg>
