<svg width="301" height="63" viewBox="0 0 301 63" fill="none" xmlns="http://www.w3.org/2000/svg">
<path d="M28.481 51.376C25.191 51.376 22.3083 50.8903 19.833 49.919L20.914 44.326C23.17 45.1407 25.3633 45.548 27.494 45.548C29.0607 45.548 29.844 45.1093 29.844 44.232C29.844 43.7933 29.609 43.433 29.139 43.151C28.7003 42.869 27.8543 42.6183 26.601 42.399C24.0003 41.8977 22.1203 41.0517 20.961 39.861C19.833 38.6703 19.269 36.9783 19.269 34.785C19.3943 32.3097 20.3813 30.414 22.23 29.098C24.0787 27.782 26.601 27.124 29.797 27.124C31.4263 27.124 32.8207 27.2337 33.98 27.453C35.1707 27.641 36.2517 27.97 37.223 28.44L36.236 34.033C35.3273 33.6883 34.3247 33.422 33.228 33.234C32.1627 33.046 31.2697 32.952 30.549 32.952C29.4837 32.952 28.7473 33.0617 28.34 33.281C27.9327 33.5003 27.729 33.798 27.729 34.174C27.729 34.8633 28.5123 35.349 30.079 35.631C32.9303 36.1323 35.061 37.0097 36.471 38.263C37.881 39.5163 38.586 41.224 38.586 43.386C38.586 45.8613 37.7087 47.8197 35.954 49.261C34.2307 50.671 31.7397 51.376 28.481 51.376ZM52.353 51.376C49.5956 51.376 47.4493 50.5927 45.914 49.026C44.3786 47.428 43.611 45.2347 43.611 42.446V33.281H40.603V27.453H44.316L48.687 18.57H53.434V27.453H58.886V33.281H53.434V41.271C53.434 42.0543 53.6846 42.6653 54.186 43.104C54.6873 43.5427 55.3923 43.762 56.301 43.762C57.147 43.762 57.9146 43.574 58.604 43.198L58.98 49.778C58.1966 50.248 57.1783 50.6397 55.925 50.953C54.703 51.235 53.5123 51.376 52.353 51.376ZM72.4128 51.376C70.3761 51.376 68.4648 50.8433 66.6788 49.778C64.9241 48.6813 63.5141 47.2087 62.4488 45.36C61.3834 43.48 60.8508 41.3963 60.8508 39.109C60.8508 36.853 61.3834 34.8163 62.4488 32.999C63.5141 31.1503 64.9398 29.709 66.7258 28.675C68.5118 27.641 70.4074 27.124 72.4128 27.124C74.0421 27.124 75.5461 27.5783 76.9248 28.487C78.3348 29.3957 79.4001 30.7587 80.1208 32.576V27.124H89.9908V51H80.1208V46.629C78.5541 49.7937 75.9848 51.376 72.4128 51.376ZM75.4678 43.95C76.7211 43.95 77.7864 43.5113 78.6638 42.634C79.5724 41.7253 80.0581 40.66 80.1208 39.438V39.062C80.0581 37.8087 79.5568 36.7433 78.6168 35.866C77.7081 34.9887 76.6584 34.55 75.4678 34.55C74.1518 34.55 73.0238 35.02 72.0838 35.96C71.1751 36.8687 70.7208 37.9653 70.7208 39.25C70.7208 40.566 71.1908 41.6783 72.1308 42.587C73.0708 43.4957 74.1831 43.95 75.4678 43.95ZM103.023 51.376C100.36 51.376 98.292 50.5457 96.8194 48.885C95.378 47.193 94.6574 44.89 94.6574 41.976V20.027L104.574 18.57V41.271C104.574 42.1483 104.778 42.7907 105.185 43.198C105.624 43.574 106.376 43.762 107.441 43.762C108.225 43.762 108.992 43.574 109.744 43.198L110.073 49.778C107.974 50.8433 105.624 51.376 103.023 51.376ZM120.786 51.376C118.123 51.376 116.055 50.5457 114.582 48.885C113.141 47.193 112.42 44.89 112.42 41.976V20.027L122.337 18.57V41.271C122.337 42.1483 122.541 42.7907 122.948 43.198C123.387 43.574 124.139 43.762 125.204 43.762C125.987 43.762 126.755 43.574 127.507 43.198L127.836 49.778C125.737 50.8433 123.387 51.376 120.786 51.376ZM139.043 27.782H148.96V31.871C150.464 28.7063 153.018 27.124 156.621 27.124C158.721 27.124 160.648 27.6567 162.402 28.722C164.188 29.756 165.583 31.1973 166.585 33.046C167.619 34.8947 168.136 36.9627 168.136 39.25C168.136 41.5373 167.604 43.6053 166.538 45.454C165.504 47.3027 164.094 48.7597 162.308 49.825C160.554 50.859 158.674 51.376 156.668 51.376C153.096 51.376 150.527 49.7937 148.96 46.629V57.11L139.043 58.99V27.782ZM153.66 43.95C154.945 43.95 156.042 43.48 156.95 42.54C157.859 41.6 158.313 40.5033 158.313 39.25C158.313 37.934 157.843 36.8217 156.903 35.913C155.995 35.0043 154.914 34.55 153.66 34.55C152.376 34.55 151.279 35.0043 150.37 35.913C149.462 36.7903 149.007 37.84 149.007 39.062V39.25C149.007 40.566 149.462 41.6783 150.37 42.587C151.31 43.4957 152.407 43.95 153.66 43.95ZM184.084 51.376C181.452 51.376 179.102 50.859 177.034 49.825C174.997 48.791 173.399 47.3653 172.24 45.548C171.112 43.6993 170.548 41.5843 170.548 39.203C170.548 36.8217 171.128 34.7223 172.287 32.905C173.446 31.0563 175.044 29.6307 177.081 28.628C179.149 27.6253 181.499 27.124 184.131 27.124C186.794 27.124 189.144 27.641 191.181 28.675C193.249 29.6777 194.847 31.0877 195.975 32.905C197.103 34.7223 197.667 36.8217 197.667 39.203C197.667 41.6157 197.087 43.7463 195.928 45.595C194.8 47.4123 193.202 48.838 191.134 49.872C189.097 50.8747 186.747 51.376 184.084 51.376ZM184.178 44.326C185.463 44.326 186.512 43.856 187.327 42.916C188.173 41.9447 188.596 40.707 188.596 39.203C188.596 37.699 188.173 36.477 187.327 35.537C186.512 34.5657 185.463 34.08 184.178 34.08C182.893 34.08 181.828 34.5657 180.982 35.537C180.167 36.477 179.76 37.699 179.76 39.203C179.76 40.707 180.167 41.9447 180.982 42.916C181.828 43.856 182.893 44.326 184.178 44.326ZM224.361 51.376C222.262 51.376 220.57 51.1097 219.285 50.577C218.032 50.013 216.998 49.0887 216.183 47.804C215.368 46.5193 214.648 44.6863 214.021 42.305L211.248 44.514V51H201.284L201.331 20.027L211.295 18.57L211.248 34.644L223.327 24.774L228.732 32.153L221.165 37.417C221.541 39.7983 222.074 41.459 222.763 42.399C223.484 43.339 224.533 43.809 225.912 43.809C226.476 43.809 227.15 43.715 227.933 43.527L226.993 51.235C226.053 51.329 225.176 51.376 224.361 51.376ZM243.518 51.376C240.917 51.376 238.599 50.859 236.562 49.825C234.557 48.7597 232.99 47.3183 231.862 45.501C230.734 43.6523 230.17 41.5687 230.17 39.25C230.17 36.8687 230.75 34.7537 231.909 32.905C233.068 31.0563 234.635 29.6307 236.609 28.628C238.583 27.6253 240.776 27.124 243.189 27.124C245.508 27.124 247.482 27.641 249.111 28.675C250.772 29.6777 252.009 31.0563 252.824 32.811C253.639 34.5343 254.046 36.477 254.046 38.639C254.046 39.203 254.015 39.6103 253.952 39.861L239.852 41.694C240.228 42.7907 240.839 43.5897 241.685 44.091C242.531 44.561 243.643 44.796 245.022 44.796C247.153 44.796 249.456 44.2477 251.931 43.151L253.106 49.449C250.192 50.7337 246.996 51.376 243.518 51.376ZM246.761 35.772C246.26 33.798 245.069 32.811 243.189 32.811C242.061 32.811 241.168 33.234 240.51 34.08C239.852 34.926 239.507 36.0227 239.476 37.37L246.761 35.772ZM257.461 27.782H267.378V32.576C268.099 30.7273 269.07 29.3643 270.292 28.487C271.546 27.5783 273.003 27.124 274.663 27.124L276.026 34.785C273.05 34.785 270.856 35.114 269.446 35.772C268.068 36.3987 267.378 37.4013 267.378 38.78V51H257.461V27.782Z" fill="#FFFA76"/>
<rect x="1" y="16" width="299" height="46" rx="19" stroke="#DBD38B" stroke-width="2"/>
</svg>
