<svg width="312" height="80" viewBox="0 0 312 80" fill="none" xmlns="http://www.w3.org/2000/svg">
<path d="M1.20848 79.5L80.3353 0.5H310.792L231.665 79.5H1.20848Z" fill="#76CD7F" stroke="black"/>
<path d="M113.319 51V29.1818H120.692C122.403 29.1818 123.802 29.4908 124.889 30.1087C125.983 30.7195 126.792 31.5469 127.318 32.5909C127.844 33.6349 128.106 34.7997 128.106 36.0852C128.106 37.3707 127.844 38.5391 127.318 39.5902C126.8 40.6413 125.997 41.4794 124.91 42.1044C123.824 42.7223 122.432 43.0312 120.734 43.0312H115.45V40.6875H120.649C121.821 40.6875 122.762 40.4851 123.472 40.0803C124.182 39.6754 124.697 39.1286 125.017 38.4396C125.344 37.7436 125.507 36.9588 125.507 36.0852C125.507 35.2116 125.344 34.4304 125.017 33.7415C124.697 33.0526 124.179 32.5128 123.461 32.1222C122.744 31.7244 121.792 31.5256 120.606 31.5256H115.961V51H113.319ZM132.021 51V34.6364H134.45V37.108H134.621C134.919 36.2983 135.459 35.6413 136.24 35.1371C137.021 34.6328 137.902 34.3807 138.882 34.3807C139.067 34.3807 139.298 34.3842 139.575 34.3913C139.852 34.3984 140.061 34.4091 140.203 34.4233V36.9801C140.118 36.9588 139.923 36.9268 139.617 36.8842C139.319 36.8345 139.003 36.8097 138.669 36.8097C137.874 36.8097 137.164 36.9766 136.539 37.3104C135.921 37.6371 135.431 38.0916 135.068 38.674C134.713 39.2493 134.536 39.9062 134.536 40.6449V51H132.021ZM149.333 51.3409C147.856 51.3409 146.56 50.9893 145.445 50.2862C144.337 49.5831 143.47 48.5994 142.845 47.3352C142.227 46.071 141.918 44.5937 141.918 42.9034C141.918 41.1989 142.227 39.7109 142.845 38.4396C143.47 37.1683 144.337 36.1811 145.445 35.478C146.56 34.7749 147.856 34.4233 149.333 34.4233C150.811 34.4233 152.103 34.7749 153.211 35.478C154.326 36.1811 155.193 37.1683 155.811 38.4396C156.436 39.7109 156.748 41.1989 156.748 42.9034C156.748 44.5937 156.436 46.071 155.811 47.3352C155.193 48.5994 154.326 49.5831 153.211 50.2862C152.103 50.9893 150.811 51.3409 149.333 51.3409ZM149.333 49.0824C150.455 49.0824 151.379 48.7947 152.103 48.2195C152.828 47.6442 153.364 46.8878 153.712 45.9503C154.06 45.0128 154.234 43.9972 154.234 42.9034C154.234 41.8097 154.06 40.7905 153.712 39.8459C153.364 38.9013 152.828 38.1378 152.103 37.5554C151.379 36.973 150.455 36.6818 149.333 36.6818C148.211 36.6818 147.288 36.973 146.563 37.5554C145.839 38.1378 145.303 38.9013 144.955 39.8459C144.607 40.7905 144.433 41.8097 144.433 42.9034C144.433 43.9972 144.607 45.0128 144.955 45.9503C145.303 46.8878 145.839 47.6442 146.563 48.2195C147.288 48.7947 148.211 49.0824 149.333 49.0824ZM167.873 34.6364V36.767H159.052V34.6364H167.873ZM161.694 51V32.3778C161.694 31.4403 161.914 30.6591 162.354 30.0341C162.795 29.4091 163.366 28.9403 164.07 28.6278C164.773 28.3153 165.515 28.1591 166.296 28.1591C166.914 28.1591 167.418 28.2088 167.809 28.3082C168.2 28.4077 168.491 28.5 168.683 28.5852L167.958 30.7585C167.83 30.7159 167.653 30.6626 167.425 30.5987C167.205 30.5348 166.914 30.5028 166.552 30.5028C165.721 30.5028 165.121 30.7124 164.751 31.1314C164.389 31.5504 164.208 32.1648 164.208 32.9744V51H161.694ZM171.396 51V34.6364H173.911V51H171.396ZM172.675 31.9091C172.185 31.9091 171.762 31.7422 171.407 31.4084C171.059 31.0746 170.885 30.6733 170.885 30.2045C170.885 29.7358 171.059 29.3345 171.407 29.0007C171.762 28.6669 172.185 28.5 172.675 28.5C173.165 28.5 173.584 28.6669 173.932 29.0007C174.287 29.3345 174.465 29.7358 174.465 30.2045C174.465 30.6733 174.287 31.0746 173.932 31.4084C173.584 31.7422 173.165 31.9091 172.675 31.9091ZM181.03 29.1818V51H178.516V29.1818H181.03ZM192.496 51.3409C190.919 51.3409 189.559 50.9929 188.415 50.2969C187.279 49.5938 186.402 48.6136 185.784 47.3565C185.173 46.0923 184.868 44.6222 184.868 42.946C184.868 41.2699 185.173 39.7926 185.784 38.5142C186.402 37.2287 187.261 36.2273 188.362 35.5099C189.47 34.7855 190.763 34.4233 192.24 34.4233C193.092 34.4233 193.934 34.5653 194.765 34.8494C195.596 35.1335 196.352 35.5952 197.034 36.2344C197.716 36.8665 198.259 37.7045 198.664 38.7486C199.069 39.7926 199.271 41.0781 199.271 42.6051V43.6705H186.657V41.4972H196.714C196.714 40.5739 196.53 39.75 196.16 39.0256C195.798 38.3011 195.28 37.7294 194.605 37.3104C193.937 36.8913 193.149 36.6818 192.24 36.6818C191.238 36.6818 190.372 36.9304 189.64 37.4276C188.916 37.9176 188.358 38.5568 187.968 39.3452C187.577 40.1335 187.382 40.9787 187.382 41.8807V43.3295C187.382 44.5653 187.595 45.6129 188.021 46.4723C188.454 47.3246 189.054 47.9744 189.822 48.4219C190.589 48.8622 191.48 49.0824 192.496 49.0824C193.156 49.0824 193.753 48.9901 194.285 48.8054C194.825 48.6136 195.29 48.3295 195.681 47.9531C196.072 47.5696 196.373 47.0937 196.586 46.5256L199.015 47.2074C198.76 48.0312 198.33 48.7557 197.726 49.3807C197.123 49.9986 196.377 50.4815 195.489 50.8295C194.601 51.1705 193.604 51.3409 192.496 51.3409Z" fill="black"/>
</svg>
