<svg width="29" height="29" viewBox="0 0 29 29" fill="none" xmlns="http://www.w3.org/2000/svg">
<path d="M17.4146 16.0076L17.27 16.1883V16.1172L16.4355 16.8683C15.3857 17.8131 13.8982 18.3499 12.4 18.3499C8.88114 18.3499 6 15.4688 6 11.9499C6 8.43107 8.88114 5.54993 12.4 5.54993C15.9189 5.54993 18.8 8.43107 18.8 11.9499C18.8 13.4493 18.2618 14.9485 17.4146 16.0076ZM17.27 17.2399V16.8199H17.805C18.0508 16.8199 18.2564 16.9035 18.3714 17.0185L23.2014 21.8485C23.4989 22.1459 23.4157 22.4694 23.255 22.5899L23.2266 22.6112L23.2014 22.6364C23.1433 22.6945 23.0607 22.7469 22.9668 22.7844C22.8708 22.8229 22.7902 22.8349 22.75 22.8349C22.7098 22.8349 22.6292 22.8229 22.5332 22.7844C22.4393 22.7469 22.3567 22.6945 22.2986 22.6364L17.4686 17.8064L17.4335 17.7714L17.3924 17.7439C17.3312 17.7032 17.3105 17.6665 17.2955 17.6115C17.2732 17.5296 17.27 17.4267 17.27 17.2399ZM6.725 11.9499C6.725 15.1011 9.24886 17.6249 12.4 17.6249C15.5511 17.6249 18.075 15.1011 18.075 11.9499C18.075 8.79878 15.5511 6.27493 12.4 6.27493C9.24886 6.27493 6.725 8.79878 6.725 11.9499Z" fill="#D9D9D9" stroke="black"/>
</svg>
