<svg width="312" height="80" viewBox="0 0 312 80" fill="none" xmlns="http://www.w3.org/2000/svg">
<path d="M1.20848 79.5L80.3353 0.5H310.792L231.665 79.5H1.20848Z" fill="#76CD7F" stroke="black"/>
<path d="M111.869 34.1364C111.741 33.0568 111.223 32.2188 110.314 31.6222C109.405 31.0256 108.29 30.7273 106.969 30.7273C106.003 30.7273 105.158 30.8835 104.433 31.196C103.716 31.5085 103.155 31.9382 102.75 32.4851C102.352 33.032 102.153 33.6534 102.153 34.3494C102.153 34.9318 102.292 35.4325 102.569 35.8516C102.853 36.2635 103.215 36.608 103.656 36.8849C104.096 37.1548 104.558 37.3785 105.04 37.5561C105.523 37.7266 105.967 37.8651 106.372 37.9716L108.588 38.5682C109.156 38.7173 109.788 38.9233 110.484 39.1861C111.188 39.4489 111.859 39.8075 112.498 40.2621C113.144 40.7095 113.677 41.2848 114.096 41.9879C114.515 42.6911 114.724 43.554 114.724 44.5767C114.724 45.7557 114.415 46.821 113.798 47.7727C113.187 48.7244 112.292 49.4808 111.113 50.0419C109.941 50.603 108.517 50.8835 106.841 50.8835C105.278 50.8835 103.925 50.6314 102.782 50.1271C101.646 49.6229 100.751 48.9197 100.097 48.0178C99.451 47.1158 99.0852 46.0682 99 44.875H101.727C101.798 45.6989 102.075 46.3807 102.558 46.9205C103.048 47.4531 103.666 47.8509 104.412 48.1136C105.165 48.3693 105.974 48.4972 106.841 48.4972C107.849 48.4972 108.755 48.3338 109.558 48.0071C110.36 47.6733 110.996 47.2116 111.464 46.6222C111.933 46.0256 112.168 45.3295 112.168 44.5341C112.168 43.8097 111.965 43.2202 111.56 42.7656C111.156 42.3111 110.623 41.9418 109.962 41.6577C109.302 41.3736 108.588 41.125 107.821 40.9119L105.136 40.1449C103.432 39.6548 102.082 38.9553 101.088 38.0462C100.094 37.1371 99.5966 35.9474 99.5966 34.4773C99.5966 33.2557 99.9268 32.1903 100.587 31.2812C101.255 30.3651 102.15 29.6548 103.272 29.1506C104.401 28.6392 105.662 28.3835 107.054 28.3835C108.46 28.3835 109.71 28.6357 110.804 29.1399C111.898 29.6371 112.764 30.3189 113.403 31.1854C114.05 32.0518 114.391 33.0355 114.426 34.1364H111.869Z" fill="black"/>
<path d="M125.588 50.8409C124.012 50.8409 122.651 50.4929 121.508 49.7969C120.372 49.0938 119.494 48.1136 118.877 46.8565C118.266 45.5923 117.96 44.1222 117.96 42.446C117.96 40.7699 118.266 39.2926 118.877 38.0142C119.494 36.7287 120.354 35.7273 121.455 35.0099C122.563 34.2855 123.855 33.9233 125.333 33.9233C126.185 33.9233 127.026 34.0653 127.857 34.3494C128.688 34.6335 129.445 35.0952 130.127 35.7344C130.808 36.3665 131.352 37.2045 131.757 38.2486C132.161 39.2926 132.364 40.5781 132.364 42.1051V43.1705H119.75V40.9972H129.807C129.807 40.0739 129.622 39.25 129.253 38.5256C128.891 37.8011 128.372 37.2294 127.698 36.8104C127.03 36.3913 126.242 36.1818 125.333 36.1818C124.331 36.1818 123.465 36.4304 122.733 36.9276C122.009 37.4176 121.451 38.0568 121.061 38.8452C120.67 39.6335 120.475 40.4787 120.475 41.3807V42.8295C120.475 44.0653 120.688 45.1129 121.114 45.9723C121.547 46.8246 122.147 47.4744 122.914 47.9219C123.681 48.3622 124.573 48.5824 125.588 48.5824C126.249 48.5824 126.845 48.4901 127.378 48.3054C127.918 48.1136 128.383 47.8295 128.774 47.4531C129.164 47.0696 129.466 46.5938 129.679 46.0256L132.108 46.7074C131.852 47.5312 131.423 48.2557 130.819 48.8807C130.215 49.4986 129.47 49.9815 128.582 50.3295C127.694 50.6705 126.696 50.8409 125.588 50.8409Z" fill="black"/>
<path d="M143.305 34.1364V36.267H134.825V34.1364H143.305ZM137.296 30.2159H139.811V45.8125C139.811 46.5227 139.914 47.0554 140.119 47.4105C140.333 47.7585 140.602 47.9929 140.929 48.1136C141.263 48.2273 141.615 48.2841 141.984 48.2841C142.261 48.2841 142.488 48.2699 142.666 48.2415C142.843 48.206 142.985 48.1776 143.092 48.1562L143.603 50.4148C143.433 50.4787 143.195 50.5426 142.889 50.6065C142.584 50.6776 142.197 50.7131 141.728 50.7131C141.018 50.7131 140.322 50.5604 139.64 50.255C138.965 49.9496 138.404 49.4844 137.957 48.8594C137.517 48.2344 137.296 47.446 137.296 46.4943V30.2159Z" fill="black"/>
<path d="M154.203 34.1364V36.267H145.723V34.1364H154.203ZM148.195 30.2159H150.709V45.8125C150.709 46.5227 150.812 47.0554 151.018 47.4105C151.231 47.7585 151.501 47.9929 151.828 48.1136C152.161 48.2273 152.513 48.2841 152.882 48.2841C153.159 48.2841 153.387 48.2699 153.564 48.2415C153.742 48.206 153.884 48.1776 153.99 48.1562L154.502 50.4148C154.331 50.4787 154.093 50.5426 153.788 50.6065C153.482 50.6776 153.095 50.7131 152.627 50.7131C151.916 50.7131 151.22 50.5604 150.539 50.255C149.864 49.9496 149.303 49.4844 148.855 48.8594C148.415 48.2344 148.195 47.446 148.195 46.4943V30.2159Z" fill="black"/>
<path d="M157.985 50.5V34.1364H160.499V50.5H157.985ZM159.264 31.4091C158.774 31.4091 158.351 31.2422 157.996 30.9084C157.648 30.5746 157.474 30.1733 157.474 29.7045C157.474 29.2358 157.648 28.8345 157.996 28.5007C158.351 28.1669 158.774 28 159.264 28C159.754 28 160.173 28.1669 160.521 28.5007C160.876 28.8345 161.053 29.2358 161.053 29.7045C161.053 30.1733 160.876 30.5746 160.521 30.9084C160.173 31.2422 159.754 31.4091 159.264 31.4091Z" fill="black"/>
<path d="M167.619 40.6562V50.5H165.104V34.1364H167.533V36.6932H167.746C168.13 35.8622 168.712 35.1946 169.494 34.6903C170.275 34.179 171.283 33.9233 172.519 33.9233C173.627 33.9233 174.597 34.1506 175.428 34.6051C176.259 35.0526 176.905 35.7344 177.366 36.6506C177.828 37.5597 178.059 38.7102 178.059 40.1023V50.5H175.545V40.2727C175.545 38.9872 175.211 37.9858 174.543 37.2685C173.876 36.544 172.96 36.1818 171.795 36.1818C170.992 36.1818 170.275 36.3558 169.643 36.7038C169.018 37.0518 168.524 37.5597 168.162 38.2273C167.8 38.8949 167.619 39.7045 167.619 40.6562Z" fill="black"/>
<path d="M189.258 56.9773C188.044 56.9773 187 56.821 186.126 56.5085C185.253 56.2031 184.525 55.7983 183.942 55.294C183.367 54.7969 182.909 54.2642 182.568 53.696L184.571 52.2898C184.798 52.5881 185.086 52.929 185.434 53.3125C185.782 53.7031 186.258 54.0405 186.861 54.3246C187.472 54.6158 188.271 54.7614 189.258 54.7614C190.579 54.7614 191.67 54.4418 192.529 53.8026C193.388 53.1634 193.818 52.1619 193.818 50.7983V47.4744H193.605C193.42 47.7727 193.158 48.142 192.817 48.5824C192.483 49.0156 192 49.4027 191.368 49.7436C190.743 50.0774 189.898 50.2443 188.832 50.2443C187.511 50.2443 186.325 49.9318 185.274 49.3068C184.23 48.6818 183.403 47.7727 182.792 46.5795C182.188 45.3864 181.886 43.9375 181.886 42.233C181.886 40.5568 182.181 39.0973 182.77 37.8544C183.36 36.6044 184.18 35.6385 185.231 34.9567C186.283 34.2678 187.497 33.9233 188.875 33.9233C189.94 33.9233 190.785 34.1009 191.41 34.456C192.042 34.804 192.525 35.2017 192.859 35.6491C193.2 36.0895 193.463 36.4517 193.648 36.7358H193.903V34.1364H196.332V50.9688C196.332 52.375 196.013 53.5185 195.373 54.3991C194.741 55.2869 193.889 55.9368 192.817 56.3487C191.751 56.7678 190.565 56.9773 189.258 56.9773ZM189.173 47.9858C190.182 47.9858 191.034 47.755 191.73 47.2933C192.426 46.8317 192.955 46.1676 193.317 45.3011C193.68 44.4347 193.861 43.3977 193.861 42.1903C193.861 41.0114 193.683 39.9709 193.328 39.0689C192.973 38.1669 192.447 37.4602 191.751 36.9489C191.055 36.4375 190.196 36.1818 189.173 36.1818C188.108 36.1818 187.22 36.4517 186.51 36.9915C185.807 37.5312 185.278 38.2557 184.922 39.1648C184.574 40.0739 184.4 41.0824 184.4 42.1903C184.4 43.3267 184.578 44.3317 184.933 45.2053C185.295 46.0717 185.828 46.7535 186.531 47.2507C187.241 47.7408 188.122 47.9858 189.173 47.9858Z" fill="black"/>
<path d="M212.525 37.8011L210.267 38.4403C210.125 38.0639 209.915 37.6982 209.638 37.343C209.368 36.9808 208.999 36.6825 208.53 36.4482C208.062 36.2138 207.461 36.0966 206.73 36.0966C205.729 36.0966 204.894 36.3274 204.226 36.7891C203.566 37.2436 203.236 37.8224 203.236 38.5256C203.236 39.1506 203.463 39.6442 203.917 40.0064C204.372 40.3686 205.082 40.6705 206.048 40.9119L208.477 41.5085C209.94 41.8636 211.03 42.407 211.748 43.1385C212.465 43.8629 212.824 44.7969 212.824 45.9403C212.824 46.8778 212.554 47.7159 212.014 48.4545C211.481 49.1932 210.736 49.7756 209.777 50.2017C208.818 50.6278 207.703 50.8409 206.432 50.8409C204.763 50.8409 203.381 50.4787 202.287 49.7543C201.194 49.0298 200.501 47.9716 200.21 46.5795L202.596 45.983C202.824 46.8636 203.253 47.5241 203.885 47.9645C204.525 48.4048 205.359 48.625 206.389 48.625C207.561 48.625 208.491 48.3764 209.18 47.8793C209.876 47.375 210.224 46.7713 210.224 46.0682C210.224 45.5 210.025 45.0241 209.628 44.6406C209.23 44.25 208.619 43.9588 207.795 43.767L205.068 43.1278C203.569 42.7727 202.469 42.2223 201.765 41.4766C201.069 40.7237 200.721 39.7827 200.721 38.6534C200.721 37.7301 200.981 36.9134 201.499 36.2031C202.025 35.4929 202.738 34.9354 203.64 34.5305C204.55 34.1257 205.579 33.9233 206.73 33.9233C208.349 33.9233 209.621 34.2784 210.544 34.9886C211.474 35.6989 212.135 36.6364 212.525 37.8011Z" fill="black"/>
</svg>
