<svg width="691" height="284" viewBox="0 0 691 284" fill="none" xmlns="http://www.w3.org/2000/svg">
<g filter="url(#filter0_d_253_584)">
<mask id="path-1-inside-1_253_584" fill="white">
<path fill-rule="evenodd" clip-rule="evenodd" d="M0 50C0 22.3858 22.3858 0 50 0H641C668.614 0 691 22.3858 691 50V230C691 257.614 668.614 280 641 280H50C22.3858 280 0 257.614 0 230V50ZM345.323 41.0474C389.406 41.0474 431.988 26.4939 466.646 0.0473633H224C258.658 26.4939 301.24 41.0474 345.323 41.0474ZM429.566 42.4057C445.104 35.9695 459.809 27.7723 473.401 18H638.933C655.502 18 668.933 31.4315 668.933 48V231.745C668.933 248.314 655.502 261.745 638.933 261.745H54C37.4314 261.745 24 248.314 24 231.745V48C24 31.4314 37.4315 18 54 18H218.881C232.473 27.7723 247.178 35.9695 262.716 42.4057C289.165 53.3613 317.513 59 346.141 59C374.769 59 403.117 53.3613 429.566 42.4057Z"/>
</mask>
<path fill-rule="evenodd" clip-rule="evenodd" d="M0 50C0 22.3858 22.3858 0 50 0H641C668.614 0 691 22.3858 691 50V230C691 257.614 668.614 280 641 280H50C22.3858 280 0 257.614 0 230V50ZM345.323 41.0474C389.406 41.0474 431.988 26.4939 466.646 0.0473633H224C258.658 26.4939 301.24 41.0474 345.323 41.0474ZM429.566 42.4057C445.104 35.9695 459.809 27.7723 473.401 18H638.933C655.502 18 668.933 31.4315 668.933 48V231.745C668.933 248.314 655.502 261.745 638.933 261.745H54C37.4314 261.745 24 248.314 24 231.745V48C24 31.4314 37.4315 18 54 18H218.881C232.473 27.7723 247.178 35.9695 262.716 42.4057C289.165 53.3613 317.513 59 346.141 59C374.769 59 403.117 53.3613 429.566 42.4057Z" fill="url(#paint0_radial_253_584)"/>
<path d="M466.646 0.0473633L467.86 1.63733L472.564 -1.95264H466.646V0.0473633ZM224 0.0473633V-1.95264H218.082L222.787 1.63733L224 0.0473633ZM473.401 18V16H472.756L472.233 16.3761L473.401 18ZM429.566 42.4057L430.331 44.2535L430.331 44.2535L429.566 42.4057ZM218.881 18L220.049 16.3761L219.526 16H218.881V18ZM262.716 42.4057L263.481 40.558L263.481 40.558L262.716 42.4057ZM50 -2C21.2812 -2 -2 21.2812 -2 50H2C2 23.4903 23.4903 2 50 2V-2ZM641 -2H50V2H641V-2ZM693 50C693 21.2812 669.719 -2 641 -2V2C667.51 2 689 23.4903 689 50H693ZM693 230V50H689V230H693ZM641 282C669.719 282 693 258.719 693 230H689C689 256.51 667.51 278 641 278V282ZM50 282H641V278H50V282ZM-2 230C-2 258.719 21.2812 282 50 282V278C23.4903 278 2 256.51 2 230H-2ZM-2 50V230H2V50H-2ZM465.433 -1.54261C431.122 24.6395 388.965 39.0474 345.323 39.0474V43.0474C389.847 43.0474 432.855 28.3483 467.86 1.63733L465.433 -1.54261ZM224 2.04736H466.646V-1.95264H224V2.04736ZM345.323 39.0474C301.681 39.0474 259.525 24.6395 225.213 -1.54261L222.787 1.63733C257.791 28.3483 300.8 43.0474 345.323 43.0474V39.0474ZM472.233 16.3761C458.766 26.0588 444.196 34.1808 428.801 40.558L430.331 44.2535C446.012 37.7582 460.851 29.4858 474.568 19.6239L472.233 16.3761ZM638.933 16H473.401V20H638.933V16ZM670.933 48C670.933 30.3269 656.606 16 638.933 16V20C654.397 20 666.933 32.536 666.933 48H670.933ZM670.933 231.745V48H666.933V231.745H670.933ZM638.933 263.745C656.606 263.745 670.933 249.418 670.933 231.745H666.933C666.933 247.209 654.397 259.745 638.933 259.745V263.745ZM54 263.745H638.933V259.745H54V263.745ZM22 231.745C22 249.418 36.3269 263.745 54 263.745V259.745C38.536 259.745 26 247.209 26 231.745H22ZM22 48V231.745H26V48H22ZM54 16C36.3269 16 22 30.3269 22 48H26C26 32.536 38.536 20 54 20V16ZM218.881 16H54V20H218.881V16ZM263.481 40.558C248.085 34.1808 233.516 26.0588 220.049 16.3761L217.714 19.6239C231.43 29.4858 246.27 37.7582 261.951 44.2535L263.481 40.558ZM346.141 57C317.775 57 289.688 51.413 263.481 40.558L261.951 44.2535C288.642 55.3095 317.25 61 346.141 61V57ZM428.801 40.558C402.594 51.413 374.506 57 346.141 57V61C375.032 61 403.64 55.3095 430.331 44.2535L428.801 40.558Z" fill="url(#paint1_radial_253_584)" mask="url(#path-1-inside-1_253_584)"/>
</g>
<mask id="path-3-inside-2_253_584" fill="white">
<path fill-rule="evenodd" clip-rule="evenodd" d="M473.401 18C459.809 27.7723 445.104 35.9695 429.566 42.4057C403.117 53.3613 374.769 59 346.141 59C317.513 59 289.165 53.3613 262.716 42.4057C247.178 35.9695 232.473 27.7723 218.881 18H54C37.4315 18 24 31.4314 24 48V231.745C24 248.314 37.4314 261.745 54 261.745H638.933C655.502 261.745 668.933 248.314 668.933 231.745V48C668.933 31.4315 655.502 18 638.933 18H473.401Z"/>
</mask>
<path fill-rule="evenodd" clip-rule="evenodd" d="M473.401 18C459.809 27.7723 445.104 35.9695 429.566 42.4057C403.117 53.3613 374.769 59 346.141 59C317.513 59 289.165 53.3613 262.716 42.4057C247.178 35.9695 232.473 27.7723 218.881 18H54C37.4315 18 24 31.4314 24 48V231.745C24 248.314 37.4314 261.745 54 261.745H638.933C655.502 261.745 668.933 248.314 668.933 231.745V48C668.933 31.4315 655.502 18 638.933 18H473.401Z" fill="url(#paint2_radial_253_584)"/>
<path d="M473.401 18V15H472.434L471.649 15.5642L473.401 18ZM429.566 42.4057L430.714 45.1774L430.714 45.1774L429.566 42.4057ZM262.716 42.4057L261.568 45.1774L261.568 45.1774L262.716 42.4057ZM218.881 18L220.633 15.5642L219.848 15H218.881V18ZM471.649 15.5642C458.244 25.202 443.742 33.2865 428.418 39.6341L430.714 45.1774C446.466 38.6526 461.373 30.3426 475.152 20.4358L471.649 15.5642ZM428.418 39.6341C402.333 50.4389 374.375 56 346.141 56V62C375.163 62 403.901 56.2837 430.714 45.1774L428.418 39.6341ZM346.141 56C317.907 56 289.949 50.4389 263.864 39.6341L261.568 45.1774C288.381 56.2837 317.119 62 346.141 62V56ZM263.864 39.6341C248.539 33.2864 234.037 25.202 220.633 15.5642L217.13 20.4358C230.909 30.3426 245.816 38.6526 261.568 45.1774L263.864 39.6341ZM218.881 15H54V21H218.881V15ZM54 15C35.7746 15 21 29.7746 21 48H27C27 33.0883 39.0883 21 54 21V15ZM21 48V231.745H27V48H21ZM21 231.745C21 249.97 35.7746 264.745 54 264.745V258.745C39.0883 258.745 27 246.657 27 231.745H21ZM54 264.745H638.933V258.745H54V264.745ZM638.933 264.745C657.159 264.745 671.933 249.97 671.933 231.745H665.933C665.933 246.657 653.845 258.745 638.933 258.745V264.745ZM671.933 231.745V48H665.933V231.745H671.933ZM671.933 48C671.933 29.7746 657.159 15 638.933 15V21C653.845 21 665.933 33.0883 665.933 48H671.933ZM638.933 15H473.401V21H638.933V15Z" fill="url(#paint3_radial_253_584)" mask="url(#path-3-inside-2_253_584)"/>
<defs>
<filter id="filter0_d_253_584" x="0" y="0" width="691" height="284" filterUnits="userSpaceOnUse" color-interpolation-filters="sRGB">
<feFlood flood-opacity="0" result="BackgroundImageFix"/>
<feColorMatrix in="SourceAlpha" type="matrix" values="0 0 0 0 0 0 0 0 0 0 0 0 0 0 0 0 0 0 127 0" result="hardAlpha"/>
<feOffset dy="4"/>
<feComposite in2="hardAlpha" operator="out"/>
<feColorMatrix type="matrix" values="0 0 0 0 0 0 0 0 0 0 0 0 0 0 0 0 0 0 0.25 0"/>
<feBlend mode="normal" in2="BackgroundImageFix" result="effect1_dropShadow_253_584"/>
<feBlend mode="normal" in="SourceGraphic" in2="effect1_dropShadow_253_584" result="shape"/>
</filter>
<radialGradient id="paint0_radial_253_584" cx="0" cy="0" r="1" gradientUnits="userSpaceOnUse" gradientTransform="translate(345.5 140) scale(324.5 800.82)">
<stop stop-color="#474747"/>
<stop offset="1" stop-color="#343434"/>
</radialGradient>
<radialGradient id="paint1_radial_253_584" cx="0" cy="0" r="1" gradientUnits="userSpaceOnUse" gradientTransform="translate(345.5 140) rotate(89.7954) scale(140.001 345.502)">
<stop stop-color="#606060"/>
<stop offset="1" stop-color="#505050"/>
</radialGradient>
<radialGradient id="paint2_radial_253_584" cx="0" cy="0" r="1" gradientUnits="userSpaceOnUse" gradientTransform="translate(346 140) rotate(90) scale(122 353.976)">
<stop offset="0.0729167" stop-color="#7DF68A"/>
<stop offset="0.640625" stop-color="#81CA6E"/>
<stop offset="1" stop-color="#609F66"/>
</radialGradient>
<radialGradient id="paint3_radial_253_584" cx="0" cy="0" r="1" gradientUnits="userSpaceOnUse" gradientTransform="translate(346.467 139.873) rotate(0.0626666) scale(116.533 233.098)">
<stop stop-color="#68C571"/>
<stop offset="1" stop-color="#5E9163"/>
</radialGradient>
</defs>
</svg>
